<svg version="1.1" xmlns="http://www.w3.org/2000/svg" xmlns:xlink="http://www.w3.org/1999/xlink" width="60px" height="75px" viewBox="0,0,204.8,256"><g fill="#ffffff" fill-rule="nonzero" stroke="none" stroke-width="1" stroke-linecap="butt" stroke-linejoin="miter" stroke-miterlimit="10" stroke-dasharray="" stroke-dashoffset="0" font-family="none" font-weight="none" font-size="none" text-anchor="none" style="mix-blend-mode: normal"><g transform="translate(-45.75577,87.39816) scale(3.41333,3.41333)"><g font-family="MyriadPro-Regular, Myriad Pro" font-weight="400" font-size="9" text-anchor="start"><text x="10.01025" y="-49.60986">Invisibility Cloak</text></g><g><path d="M28.68262,37.48145c0.75548,-0.65625 1.8788,-0.65625 2.63428,0l12.0211,10.51855h-26.676zM34.14814,37.3006l10.85186,-10.01709v19.51227zM32.6349,35.9766l-0.0639,-0.0568c-1.49082,-1.32517 -3.74449,-1.30068 -5.20615,0.05658v0l-10.80772,-9.97638h26.88574zM25.85164,37.30045l-10.85164,9.49527v-19.51221zM31.9655,9.66666c0.26932,-0.08703 0.56293,-0.05565 0.80779,0.08632c0.24485,0.14197 0.41794,0.3812 0.47621,0.65817c0.85311,3.88954 3.74369,5.95923 6.34229,7.82029c2.26373,1.62091 4.4137,3.165 5.17987,5.76855h-29.548c1.50581,-5.79238 8.06579,-11.3941 16.74184,-14.33333z"></path><path d="M59.95313,25.69727c-0.11985,-0.3766 -0.45001,-0.64746 -0.84277,-0.69141l-9,-1c-0.54809,-0.05921 -1.04076,0.3362 -1.10158,0.88411c-0.06082,0.54791 0.33315,1.04174 0.88088,1.10417l6.76611,0.752l-7.32031,6.50684c-0.25398,0.22582 -0.37589,0.56516 -0.32367,0.90098c0.05222,0.33581 0.27141,0.62212 0.58197,0.76015l6.644,2.95215l-6.5542,2.18555c-0.33979,0.11225 -0.59365,0.39757 -0.66563,0.7481c-0.07198,0.35053 0.0489,0.71281 0.31695,0.94988c0.26805,0.23707 0.64238,0.31278 0.98149,0.1985l9,-3c0.39156,-0.13047 0.66271,-0.48814 0.6826,-0.90039c0.01989,-0.41225 -0.21558,-0.79435 -0.59276,-0.96191l-7.582,-3.36914l7.84033,-6.96973c0.29509,-0.26225 0.40817,-0.67362 0.28859,-1.04985z"></path><path d="M35.3999,4.7998c0.30322,0.22683 0.70836,0.26348 1.04736,0.09473l4.12061,-2.06053l-1.54394,6.9492c-0.08564,0.38515 0.06329,0.78464 0.38016,1.01973c0.31687,0.23509 0.74238,0.26179 1.08615,0.06816l13.27246,-7.46484l-6.66748,14.168c-0.14574,0.30975 -0.12292,0.67253 0.06051,0.96156c0.18342,0.28904 0.50195,0.46416 0.84427,0.46419c0.02979,0 0.06006,-0.001 0.09033,-0.00391l11,-1c0.55013,-0.04989 0.95565,-0.5363 0.90577,-1.08643c-0.04989,-0.55013 -0.5363,-0.95565 -1.08643,-0.90576l-9.26123,0.8418l7.25635,-15.41992c0.18547,-0.39358 0.09504,-0.86193 -0.22362,-1.15817c-0.31866,-0.29624 -0.79235,-0.35233 -1.17138,-0.1387l-14.04788,7.90136l1.51416,-6.81347c0.08354,-0.37654 -0.05688,-0.76756 -0.36089,-1.00493c-0.30401,-0.23737 -0.71741,-0.27877 -1.06245,-0.1064l-5.44726,2.72363l-3.50537,-2.6289c-0.44172,-0.33143 -1.06847,-0.24202 -1.3999,0.1997c-0.33143,0.44172 -0.24202,1.06847 0.1997,1.3999z"></path><path d="M8.13184,27.49609c0.27399,0.47947 0.88479,0.64606 1.36426,0.37207c0.47947,-0.27399 0.64606,-0.88479 0.37207,-1.36426l-7.02441,-12.293l7.0459,0.7832c0.29851,0.03294 0.59603,-0.06991 0.81046,-0.28018c0.21443,-0.21027 0.32309,-0.50572 0.29599,-0.80482l-0.81592,-8.97266l9.28271,5.90723c0.27516,0.17509 0.61841,0.205 0.9197,0.08015c0.3013,-0.12485 0.52279,-0.38877 0.59348,-0.70715l1.644,-7.39844l4.73975,3.9502c0.42463,0.35136 1.05348,0.29301 1.40621,-0.13049c0.35273,-0.42349 0.29641,-1.05253 -0.12594,-1.40662l-6,-5c-0.26808,-0.22302 -0.63296,-0.29033 -0.96297,-0.17764c-0.33001,0.11269 -0.57751,0.38911 -0.6532,0.72952l-1.69043,7.60743l-9.79639,-6.23438c-0.32181,-0.20449 -0.73188,-0.20832 -1.05745,-0.00987c-0.32557,0.19845 -0.51006,0.56469 -0.47575,0.94444l0.88916,9.78027l-7.78271,-0.86523c-0.37401,-0.04144 -0.73962,0.13056 -0.94616,0.44511c-0.20654,0.31455 -0.21904,0.7184 -0.03236,1.04512z"></path><path d="M32.21924,52.375l-3.21924,4.02441l-3.21924,-4.02441c-0.21324,-0.26599 -0.54723,-0.40511 -0.88623,-0.36914c-0.33901,0.03596 -0.63638,0.24206 -0.78906,0.54687l-2.00391,4.00781l-1.17285,-2.93164c-0.1409,-0.35295 -0.46971,-0.59551 -0.84853,-0.62596c-0.37882,-0.03045 -0.74214,0.15649 -0.9376,0.48241l-3,5c-0.28423,0.47354 -0.13077,1.08784 0.34277,1.37207c0.47354,0.28423 1.08784,0.13077 1.37207,-0.34277l1.96289,-3.27148l1.251,3.12793c0.14627,0.36576 0.49362,0.6116 0.88721,0.62793c0.39423,0.01968 0.76232,-0.1973 0.936,-0.55176l2.30078,-4.60254l3.02394,3.78027c0.19643,0.22611 0.48124,0.35595 0.78076,0.35595c0.29952,0 0.58433,-0.12985 0.78076,-0.35595l4,-5c0.22456,-0.27883 0.28296,-0.65642 0.15311,-0.99006c-0.12985,-0.33363 -0.42813,-0.57241 -0.7821,-0.62607c-0.35397,-0.05366 -0.70962,0.08598 -0.93252,0.36613z"></path><path d="M58.59375,45.08594l-9,4c-0.50463,0.22456 -0.73174,0.81562 -0.50732,1.32031l2.9209,6.57227l-10.58838,-4.88672c-0.49049,-0.22572 -1.07161,-0.02179 -1.31348,0.46094l-3,6c-0.2449,0.49371 -0.04424,1.09249 0.44868,1.33896c0.49293,0.24646 1.09235,0.04772 1.34038,-0.44443l2.56641,-5.13281l12.12011,5.59374c0.37809,0.17438 0.82466,0.09624 1.12108,-0.19615c0.29642,-0.2924 0.38064,-0.73786 0.21144,-1.1183l-3.59375,-8.08594l8.08643,-3.59375c0.50482,-0.22437 0.73218,-0.81549 0.50781,-1.32031c-0.22437,-0.50482 -0.81549,-0.73218 -1.32031,-0.50781z"></path><path d="M12.61523,53.07715l-9.13964,3.80762l6.376,-10.36035c0.15656,-0.25456 0.19114,-0.56578 0.09429,-0.8485c-0.09686,-0.28272 -0.31501,-0.50735 -0.59478,-0.61244l-6.00586,-2.252l5.15088,-2.94336c0.32015,-0.18301 0.51362,-0.52735 0.5034,-0.89597c-0.01021,-0.36863 -0.22244,-0.70172 -0.55223,-0.86673l-3.582,-1.791l5.37744,-1.34473c0.38398,-0.0959 0.67522,-0.40931 0.74275,-0.79928c0.06753,-0.38997 -0.10137,-0.78306 -0.43075,-1.00248l-9,-6c-0.45945,-0.30378 -1.07804,-0.17884 -1.38357,0.27944c-0.30553,0.45828 -0.18296,1.07735 0.27415,1.38463l7.11914,4.74609l-5.80713,1.45218c-0.40599,0.10139 -0.70588,0.44492 -0.75153,0.86088c-0.04565,0.41597 0.1726,0.81635 0.54694,1.00338l4.32861,2.16406l-5.37743,3.07325c-0.33651,0.19243 -0.53153,0.56198 -0.50048,0.94838c0.03105,0.3864 0.28256,0.72007 0.64548,0.85631l6.86328,2.57324l-7.36375,11.96582c-0.22777,0.36958 -0.19102,0.84391 0.09096,1.174c0.28198,0.33009 0.74474,0.4405 1.14537,0.27327l12,-5c0.50856,-0.2132 0.7485,-0.79789 0.53629,-1.30687c-0.21221,-0.50897 -0.79643,-0.75005 -1.30582,-0.53883z"></path><path d="M4.293,7.707c0.39148,0.38445 1.01964,0.38161 1.40763,-0.00637c0.38798,-0.38798 0.39083,-1.01614 0.00637,-1.40763l-4,-4c-0.39148,-0.38445 -1.01964,-0.38161 -1.40763,0.00637c-0.38798,0.38798 -0.39083,1.01614 -0.00637,1.40763z"></path><path d="M54.2002,13.59961c0.15897,0.21235 0.39585,0.35278 0.65844,0.39033c0.26259,0.03755 0.52934,-0.03085 0.74146,-0.19013l4,-3c0.44172,-0.33143 0.53113,-0.95818 0.1997,-1.39991c-0.33143,-0.44172 -0.95818,-0.53113 -1.3999,-0.1997l-4,3c-0.21218,0.159 -0.35245,0.39583 -0.38991,0.65831c-0.03746,0.26249 0.03097,0.52909 0.19021,0.7411z"></path><path d="M46.707,11.293c-0.18748,-0.18758 -0.44182,-0.29297 -0.70703,-0.29297c-0.26521,0 -0.51955,0.10539 -0.70703,0.29297l-2,2c-0.25524,0.25206 -0.3559,0.62154 -0.26377,0.96823c0.09213,0.34669 0.36291,0.61747 0.70961,0.70958c0.3467,0.09211 0.71617,-0.00856 0.96822,-0.26382l2,-2c0.18756,-0.18748 0.29294,-0.44181 0.29294,-0.707c0,-0.26519 -0.10538,-0.51952 -0.29294,-0.707z"></path><path d="M56.707,51.293c-0.39148,-0.38445 -1.01964,-0.38161 -1.40763,0.00637c-0.38798,0.38798 -0.39083,1.01614 -0.00637,1.40763l3,3c0.39148,0.38445 1.01964,0.38161 1.40763,-0.00637c0.38798,-0.38798 0.39083,-1.01614 0.00637,-1.40763z"></path><path d="M8.293,17.293c-0.18758,0.18748 -0.29297,0.44182 -0.29297,0.70703c0,0.26521 0.10539,0.51955 0.29297,0.70703l2,2c0.39119,0.38628 1.02086,0.38429 1.40959,-0.00447c0.38874,-0.38875 0.3907,-1.01842 0.00441,-1.40959l-2,-2c-0.18748,-0.18756 -0.44181,-0.29294 -0.707,-0.29294c-0.26519,0 -0.51952,0.10538 -0.707,0.29294z"></path><path d="M14.10547,12.44727c0.24803,0.49214 0.84745,0.69089 1.34038,0.44443c0.49293,-0.24646 0.69358,-0.84525 0.44868,-1.33896l-1,-2c-0.24803,-0.49214 -0.84745,-0.69089 -1.34038,-0.44443c-0.49293,0.24646 -0.69358,0.84525 -0.44868,1.33896z"></path><path d="M43.707,57.293c-0.39148,-0.38445 -1.01964,-0.38161 -1.40763,0.00637c-0.38798,0.38798 -0.39083,1.01614 -0.00637,1.40763l1,1c0.39148,0.38445 1.01964,0.38161 1.40763,-0.00637c0.38798,-0.38798 0.39083,-1.01614 0.00637,-1.40763z"></path></g><text x="0" y="75" font-family="'Helvetica Neue', Helvetica, Arial-Unicode, Arial, Sans-serif" font-weight="bold" font-size="5" text-anchor="start">Created by Locad</text><text x="0" y="80" font-family="'Helvetica Neue', Helvetica, Arial-Unicode, Arial, Sans-serif" font-weight="bold" font-size="5" text-anchor="start">from the Noun Project</text></g></g></svg>