<svg version="1.1" xmlns="http://www.w3.org/2000/svg" xmlns:xlink="http://www.w3.org/1999/xlink" width="60px" height="75px" viewBox="0,0,204.8,256"><g fill="#ffffff" fill-rule="nonzero" stroke="none" stroke-width="1" stroke-linecap="butt" stroke-linejoin="miter" stroke-miterlimit="10" stroke-dasharray="" stroke-dashoffset="0" font-family="none" font-weight="none" font-size="none" text-anchor="none" style="mix-blend-mode: normal"><g transform="translate(5.37546,-19.62667) scale(3.41333,3.41333)"><g><path d="M15.52565,5.58528l-2.91865,8.75662c-0.05082,0.15248 -0.02524,0.3201 0.06874,0.45048c0.09399,0.13038 0.24492,0.20764 0.40565,0.20762h5.83722c0.16072,0 0.31164,-0.07726 0.40562,-0.20764c0.09398,-0.13038 0.11955,-0.29799 0.06873,-0.45046l-2.91861,-8.75662c-0.06805,-0.20418 -0.25913,-0.34191 -0.47435,-0.34191c-0.21522,0 -0.4063,0.13773 -0.47435,0.34191z"></path><path d="M33,17h-6v10h6zM31,21c0,0.55228 -0.44772,1 -1,1c-0.55228,0 -1,-0.44772 -1,-1v-1c0,-0.55228 0.44772,-1 1,-1c0.55228,0 1,0.44772 1,1z"></path><rect x="27" y="29" width="6" height="2"></rect><path d="M34.523,12h-9.046l1.2,3h6.646z"></path><rect x="14" y="21" width="4" height="2"></rect><path d="M9.57125,23.65846l-4.40475,7.34154h9.667l-4.40475,-7.34154c-0.09036,-0.15061 -0.25312,-0.24276 -0.42875,-0.24276c-0.17563,0 -0.33839,0.09215 -0.42875,0.24276z"></path><rect x="14" y="17" width="4" height="2"></rect><path d="M14,25.723l4,6.667v-7.39h-4z"></path><path d="M43.52565,5.58528l-2.91865,8.75662c-0.05082,0.15248 -0.02524,0.3201 0.06874,0.45048c0.09399,0.13038 0.24492,0.20764 0.40565,0.20762h5.83722c0.16072,0 0.31164,-0.07726 0.40562,-0.20764c0.09398,-0.13038 0.11955,-0.29799 0.06873,-0.45046l-2.91861,-8.75662c-0.06805,-0.20418 -0.25913,-0.34191 -0.47435,-0.34191c-0.21522,0 -0.4063,0.13773 -0.47435,0.34191z"></path><rect x="42" y="21" width="4" height="2"></rect><path d="M35,10v-4c0,-0.55228 -0.44772,-1 -1,-1c-0.55228,0 -1,0.44772 -1,1v2h-2v-2c0,-0.55228 -0.44772,-1 -1,-1c-0.55228,0 -1,0.44772 -1,1v2h-2v-2c0,-0.55228 -0.44772,-1 -1,-1c-0.55228,0 -1,0.44772 -1,1v4z"></path><rect x="42" y="17" width="4" height="2"></rect><path d="M43.64968,35h12.70064c0.18013,0 0.34634,-0.0969 0.4351,-0.25365c0.08875,-0.15675 0.08633,-0.34913 -0.00635,-0.50359l-0.74562,-1.24276h-12.0669l-0.74563,1.24276c-0.09268,0.15447 -0.0951,0.34684 -0.00634,0.5036c0.08876,0.15675 0.25497,0.25365 0.4351,0.25364z"></path><path d="M16.03345,33h-12.0669l-0.74563,1.24276c-0.09268,0.15447 -0.0951,0.34684 -0.00634,0.5036c0.08876,0.15675 0.25497,0.25365 0.4351,0.25364h12.70064c0.18013,0 0.34634,-0.0969 0.4351,-0.25365c0.08875,-0.15675 0.08633,-0.34913 -0.00635,-0.50359z"></path><path d="M54.8335,31l-4.40475,-7.34154c-0.09036,-0.15061 -0.25312,-0.24276 -0.42875,-0.24276c-0.17563,0 -0.33839,0.09215 -0.42875,0.24276l-4.40475,7.34154z"></path><path d="M42,32.39l4,-6.667v-0.723h-4z"></path><path d="M37.02832,45h1.94336c0.01033,-1.36439 -0.32389,-2.70931 -0.97168,-3.91016c-0.64779,1.20085 -0.98201,2.54577 -0.97168,3.91016z"></path><path d="M21.02832,45h1.94336c0.01033,-1.36439 -0.32389,-2.70931 -0.97168,-3.91016c-0.64779,1.20085 -0.98201,2.54577 -0.97168,3.91016z"></path><path d="M40.6543,36.9303c-0.02808,-0.01044 -0.0542,-0.02112 -0.08105,-0.03394c-0.10077,-0.0458 -0.19319,-0.1081 -0.27344,-0.18433l-0.00806,-0.00623c-0.0632,-0.06335 -0.11764,-0.13487 -0.16187,-0.21265c-0.01221,-0.02173 -0.01685,-0.0459 -0.02734,-0.06824c-0.01318,-0.02765 -0.02319,-0.05505 -0.03369,-0.084c-0.03941,-0.10312 -0.06144,-0.21206 -0.06519,-0.32239c0,-0.00652 -0.00366,-0.01193 -0.00366,-0.01852v-3h-20v3c0,0.00659 -0.00366,0.012 -0.00366,0.01849c-0.0037,0.11032 -0.02568,0.21927 -0.06506,0.32239c-0.01062,0.029 -0.02063,0.05652 -0.03381,0.08417c-0.0105,0.02234 -0.01514,0.04645 -0.02734,0.06812c-0.04423,0.07778 -0.09867,0.1493 -0.16187,0.21265l-0.00806,0.00623c-0.08021,0.07627 -0.17264,0.13855 -0.27344,0.18427c-0.02686,0.01288 -0.053,0.02356 -0.08105,0.034c-0.11013,0.04375 -0.22723,0.06735 -0.34571,0.06968h-2v17h6.43726c1.16674,-5.95508 4.44287,-7 6.56274,-7c2.11987,0 5.396,1.04492 6.56274,7h6.43726v-17h-2c-0.11848,-0.00231 -0.23558,-0.02592 -0.3457,-0.0697zM24,47h-4c-0.26526,0.00015 -0.51971,-0.10515 -0.70728,-0.29272c-0.18757,-0.18757 -0.29288,-0.44201 -0.29272,-0.70728c0,-3.48437 0.92773,-7 3,-7c2.07227,0 3,3.51563 3,7c0.00015,0.26526 -0.10515,0.51971 -0.29272,0.70728c-0.18757,0.18757 -0.44201,0.29288 -0.70728,0.29272zM32,43h-4c-0.26526,0.00015 -0.51971,-0.10515 -0.70728,-0.29272c-0.18757,-0.18757 -0.29288,-0.44201 -0.29272,-0.70728c0,-3.48437 0.92773,-7 3,-7c2.07227,0 3,3.51563 3,7c0.00015,0.26526 -0.10515,0.51971 -0.29272,0.70728c-0.18757,0.18757 -0.44201,0.29288 -0.70728,0.29272zM40,47h-4c-0.26526,0.00015 -0.51971,-0.10515 -0.70728,-0.29272c-0.18757,-0.18757 -0.29288,-0.44201 -0.29272,-0.70728c0,-3.48437 0.92773,-7 3,-7c2.07227,0 3,3.51563 3,7c0.00015,0.26526 -0.10515,0.51971 -0.29272,0.70728c-0.18757,0.18757 -0.44201,0.29288 -0.70728,0.29272z"></path><path d="M29.02832,41h1.94336c0.01033,-1.36439 -0.32389,-2.70931 -0.97168,-3.91016c-0.64779,1.20085 -0.98201,2.54577 -0.97168,3.91016z"></path><path d="M45.5,58h3.5v-3c0,-0.55228 0.44772,-1 1,-1c0.55228,0 1,0.44772 1,1v3h3.5c0.27614,0 0.5,-0.22386 0.5,-0.5v-20.5h-10v20.5c0,0.27614 0.22386,0.5 0.5,0.5zM50,39c2.0706,0 2.99851,3.51 3,6.99159c0.00117,0.26635 -0.10354,0.52225 -0.29109,0.71137c-0.18755,0.18913 -0.44256,0.29598 -0.70891,0.29704h-4c-0.26635,-0.00106 -0.52137,-0.10791 -0.70892,-0.29704c-0.18755,-0.18913 -0.29226,-0.44503 -0.29108,-0.71138c0.00149,-3.48158 0.9294,-6.99158 3,-6.99158z"></path><path d="M50,41.08984c-0.64779,1.20085 -0.98201,2.54577 -0.97168,3.91016h1.94336c0.01033,-1.36439 -0.32389,-2.70931 -0.97168,-3.91016z"></path><path d="M36.9863,58h5.5137c0.27614,0 0.5,-0.22386 0.5,-0.5v-1.5h-6.14514c0.06214,0.62772 0.11096,1.284 0.13144,2z"></path><path d="M17.5,58h5.5137c0.02048,-0.716 0.06931,-1.37226 0.13144,-2h-6.14514v1.5c0,0.27614 0.22386,0.5 0.5,0.5z"></path><path d="M5.5,58h3.5v-3c0,-0.55228 0.44772,-1 1,-1c0.55228,0 1,0.44772 1,1v3h3.5c0.27614,0 0.5,-0.22386 0.5,-0.5v-20.5h-10v20.5c0,0.27614 0.22386,0.5 0.5,0.5zM10,39c2.07061,0 2.99852,3.51 2.99993,6.99164c0.00116,0.26633 -0.10355,0.5222 -0.29108,0.71132c-0.18753,0.18911 -0.44252,0.29597 -0.70885,0.29704h-4c-0.26633,-0.00108 -0.52132,-0.10793 -0.70885,-0.29705c-0.18753,-0.18912 -0.29224,-0.44499 -0.29108,-0.71132c0.00141,-3.48163 0.92932,-6.99163 2.99993,-6.99163z"></path><path d="M30,49c-3.83447,0 -4.85608,4.681 -4.98389,9h9.96777c-0.1278,-4.319 -1.14941,-9 -4.98388,-9z"></path><path d="M10,41.08984c-0.64779,1.20085 -0.98201,2.54577 -0.97168,3.91016h1.94336c0.01033,-1.36439 -0.32389,-2.70931 -0.97168,-3.91016z"></path></g><text x="0" y="75" font-family="'Helvetica Neue', Helvetica, Arial-Unicode, Arial, Sans-serif" font-weight="bold" font-size="5" text-anchor="start"></text><text x="0" y="80" font-family="'Helvetica Neue', Helvetica, Arial-Unicode, Arial, Sans-serif" font-weight="bold" font-size="5" text-anchor="start"></text></g></g></svg>