<svg version="1.1" xmlns="http://www.w3.org/2000/svg" xmlns:xlink="http://www.w3.org/1999/xlink" width="100px" height="125px" viewBox="0,0,204.8,256"><g fill="#ffffff" fill-rule="nonzero" stroke="none" stroke-width="1" stroke-linecap="butt" stroke-linejoin="miter" stroke-miterlimit="10" stroke-dasharray="" stroke-dashoffset="0" font-family="none" font-weight="none" font-size="none" text-anchor="none" style="mix-blend-mode: normal"><g transform="translate(13.88285,-2.21082) scale(2.048,2.048)"><path d="M85.657,24.734c0.93,-5.583 0,-8.374 0,-8.374c0,0 -2.792,-10.701 -15.354,-10.701c-12.562,0 -17.214,17.214 -17.214,17.214c-0.233,0.698 -5.816,4.42 -7.211,4.885c-1.396,0.465 -8.374,8.84 -8.374,8.84c-0.931,0 -1.396,-0.465 -1.396,-0.465c-0.931,0.465 -2.792,4.187 -2.792,4.187c-4.187,2.326 -6.979,6.979 -6.979,6.979c2.792,-0.465 2.792,0.465 2.792,0.465c-3.722,1.861 -5.583,11.631 -5.583,12.096c0,0.465 -4.42,8.607 -5.35,10.003c-0.93,1.396 -0.465,1.861 -0.465,1.861c0,0 0,0.465 0.465,0.465c0.465,0 -0.466,0.931 -0.466,0.931c-2.326,0.93 -3.257,5.583 -3.722,6.513c-0.465,0.93 0,5.583 0,5.118c0,-0.316 1.935,-2.354 3.322,-3.624l0.042,-0.042c0.005,0 0.005,0 0.009,-0.005c0.628,-0.577 1.135,-0.982 1.279,-0.982c0.102,0 0.158,0.13 0.186,0.34c7.723,-3.434 19.717,-9.417 27.701,-16.744c7.021,-6.448 12.813,-13.892 16.544,-19.187c-4.917,7.383 -12.598,18.447 -16.641,22.178c-4.229,3.857 -18.61,10.147 -27.599,13.823c0.079,0.772 -0.191,2.382 -0.191,2.382c0.465,1.396 2.326,0.465 2.326,0.465c0,0 2.326,-3.257 1.396,-0.465c-0.93,2.791 0.931,2.791 0.931,2.791c0,0 3.722,-3.257 3.722,-2.326c0,0.93 -0.931,4.652 -0.931,4.652v7.444c0,0 2.326,0.465 2.326,0c0,-0.465 2.792,-3.257 2.792,-3.257c0.93,0 0.93,0.465 0.93,0.465c0.465,-0.465 1.861,-0.465 1.861,-0.465c0,0.931 1.396,0.465 1.396,0.465c2.791,-0.93 6.979,-17.214 6.979,-17.214l6.514,-5.118c0,0 0.465,0.465 0,0.931c-0.465,0.465 0,3.722 0,5.118c0,0.746 0.931,0.961 1.798,0.998c0.817,0.036 1.586,-0.309 2.165,-0.886c2.609,-2.603 5.381,-1.004 5.808,-0.578c0.465,0.465 1.396,0 1.396,0c0,0 0.465,-0.465 1.396,-1.396c0.931,-0.93 3.047,0.712 3.536,-0.079c0.259,-0.42 1,-2 0.651,-3.643c-0.198,-0.93 -2.294,-1.973 -3.443,-2.48c-0.454,-0.201 -0.744,-0.654 -0.744,-1.151v-4.744l5.118,-3.257c0,0 3.722,-0.931 5.583,-2.792c1.861,-1.861 2.792,-5.118 3.722,-6.048c0.931,-0.931 1.396,0.931 2.326,0c0.931,-0.931 2.792,-8.374 2.792,-8.374c0,0 4.187,-6.048 5.118,-8.84c0.928,-2.789 -0.467,-8.372 -0.467,-8.372zM65.567,17.983c-1.819,0 -3.289,-0.879 -3.289,-1.973c0,-1.093 1.47,-1.973 3.289,-1.973c0.13,0 0.261,0 0.391,0.028c-0.605,0.116 -1.051,0.656 -1.051,1.289c0,0.721 0.591,1.312 1.317,1.312c0.721,0 1.317,-0.591 1.317,-1.312c0,-0.502 -0.293,-0.949 -0.712,-1.158c1.182,0.288 2.024,0.986 2.024,1.814c-0.001,1.094 -1.471,1.973 -3.286,1.973zM71.164,21.812c0,0 -1.107,-1.107 -1.107,-2.219c0,-1.107 1.107,-1.107 1.107,-1.107c0,0 1.112,0 1.112,1.107c0,1.112 -1.112,2.219 -1.112,2.219zM76.552,17.983c-1.814,0 -3.289,-0.879 -3.289,-1.973c0,-0.828 0.842,-1.526 2.028,-1.814c-0.423,0.209 -0.712,0.656 -0.712,1.158c0,0.721 0.591,1.312 1.317,1.312c0.721,0 1.317,-0.591 1.317,-1.312c0,-0.633 -0.451,-1.172 -1.056,-1.289c0.135,-0.028 0.265,-0.028 0.395,-0.028c1.814,0 3.289,0.879 3.289,1.973c0,1.094 -1.475,1.973 -3.289,1.973z"></path><text x="0" y="115" font-family="'Helvetica Neue', Helvetica, Arial-Unicode, Arial, Sans-serif" font-weight="bold" font-size="5" text-anchor="start">Created by Whitney Rosenberg</text><text x="0" y="120" font-family="'Helvetica Neue', Helvetica, Arial-Unicode, Arial, Sans-serif" font-weight="bold" font-size="5" text-anchor="start">from the Noun Project</text></g></g></svg>