<svg version="1.1" xmlns="http://www.w3.org/2000/svg" xmlns:xlink="http://www.w3.org/1999/xlink" width="100px" height="125px" viewBox="0,0,204.8,256"><g fill="#f7f4f4" fill-rule="nonzero" stroke="none" stroke-width="1" stroke-linecap="butt" stroke-linejoin="miter" stroke-miterlimit="10" stroke-dasharray="" stroke-dashoffset="0" font-family="none" font-weight="none" font-size="none" text-anchor="none" style="mix-blend-mode: normal"><g transform="translate(15.39687,-2.36544) scale(2.048,2.048)"><g><path d="M79.893,11.482h-0.189v-0.859c0,-2.654 -2.16,-4.813 -4.816,-4.813h-55.039c-2.655,0 -4.814,2.159 -4.814,4.813v73.28v0c0,0.805 0.217,1.551 0.567,2.219v2.998c0,2.797 2.275,5.072 5.072,5.072h59.218c2.797,0 5.072,-2.275 5.072,-5.072v-72.566c0.001,-2.797 -2.275,-5.072 -5.071,-5.072zM74.887,85.883h-4.73l6.711,-6.711v4.73c-0.001,1.092 -0.889,1.981 -1.981,1.981zM76.867,75.164l-10.719,10.719h-37.179v-77.24h37.162l10.517,10.517l0.219,-0.219zM76.867,10.623v4.748l-6.729,-6.728h4.748c1.093,0 1.981,0.888 1.981,1.98zM17.87,10.623c0,-1.092 0.888,-1.979 1.979,-1.979h6.284v77.24h-6.284c-1.092,0 -1.979,-0.889 -1.979,-1.98zM82.131,89.119c0,1.234 -1.004,2.238 -2.238,2.238h-59.219c-1.234,0 -2.238,-1.004 -2.238,-2.238v-0.639c0.45,0.139 0.918,0.236 1.413,0.236h55.038c0.996,0 1.922,-0.305 2.691,-0.824c1.281,-0.865 2.125,-2.33 2.125,-3.99v0v-69.586h0.189c1.234,0 2.238,1.004 2.238,2.238v72.565z"></path><path d="M51.352,30.262c-9.134,0 -16.566,7.432 -16.566,16.566c0,9.134 7.432,16.566 16.566,16.566c9.135,0 16.566,-7.432 16.566,-16.566c0,-9.134 -7.432,-16.566 -16.566,-16.566zM63.627,40.709h-7.736l-2.414,-7.432c4.455,0.697 8.199,3.534 10.15,7.432zM46.917,50.733l2.214,1.609l-3.583,2.602zM45.426,46.146l-3.582,-2.603h4.428zM47.837,47.898l1.415,-4.354h4.578l1.416,4.354l-3.705,2.691zM51.541,36.498l1.369,4.212h-2.737zM56.166,50.733l1.369,4.21l-3.582,-2.602zM56.811,43.543h4.428l-3.582,2.603zM49.627,33.216l-2.435,7.493h-8.116c2.01,-4.014 5.921,-6.908 10.551,-7.493zM37.62,46.829c0,-0.91 0.094,-1.798 0.264,-2.659l6.622,4.812l-2.547,7.837c-2.664,-2.506 -4.339,-6.053 -4.339,-9.99zM44.879,58.934l6.662,-4.84l6.496,4.719c-1.98,1.109 -4.258,1.748 -6.686,1.748c-2.339,0 -4.542,-0.59 -6.472,-1.627zM61.039,56.553l-2.461,-7.572l6.279,-4.563c0.141,0.785 0.227,1.588 0.227,2.411c0,3.796 -1.549,7.235 -4.045,9.724z"></path></g><text x="0" y="115" font-family="'Helvetica Neue', Helvetica, Arial-Unicode, Arial, Sans-serif" font-weight="bold" font-size="5" text-anchor="start">Created by Nikita Kozin</text><text x="0" y="120" font-family="'Helvetica Neue', Helvetica, Arial-Unicode, Arial, Sans-serif" font-weight="bold" font-size="5" text-anchor="start">from the Noun Project</text></g></g></svg>