<?xml version="1.0" encoding="UTF-8" standalone="no" ?>
<!DOCTYPE svg PUBLIC "-//W3C//DTD SVG 1.1//EN" "http://www.w3.org/Graphics/SVG/1.1/DTD/svg11.dtd">
<svg xmlns="http://www.w3.org/2000/svg" xmlns:xlink="http://www.w3.org/1999/xlink" version="1.1" width="60" height="75" viewBox="0 0 60 75" xml:space="preserve">
<desc>Created with Fabric.js 5.2.4</desc>
<defs>
</defs>
<rect x="0" y="0" width="100%" height="100%" fill="transparent"></rect>
<g transform="matrix(1 0 0 1 30 37.5)" id="a752b7fb-1700-4ca2-bd61-661fc49cc92b"  >
<rect style="stroke: none; stroke-width: 1; stroke-dasharray: none; stroke-linecap: butt; stroke-dashoffset: 0; stroke-linejoin: miter; stroke-miterlimit: 4; fill: rgb(255,255,255); fill-rule: nonzero; opacity: 1; visibility: hidden;" vector-effect="non-scaling-stroke"  x="-30" y="-37.5" rx="0" ry="0" width="60" height="75" />
</g>
<g transform="matrix(Infinity NaN NaN Infinity 0 0)" id="a0cb33f5-f109-4228-84f3-87d0e7c70865"  >
</g>
<g transform="matrix(0.06 0 0 0.06 28 39.5)"  >
<g style="" vector-effect="non-scaling-stroke"   >
		<g transform="matrix(1 0 0 1 42.5 -3.13)"  >
<polygon style="stroke: none; stroke-width: 1; stroke-dasharray: none; stroke-linecap: butt; stroke-dashoffset: 0; stroke-linejoin: miter; stroke-miterlimit: 4; fill: rgb(255,247,247); fill-rule: nonzero; opacity: 1;" vector-effect="non-scaling-stroke"  points="21.09,-45.29 -21.09,-45.29 -45.48,0 -21.09,45.29 21.09,45.29 45.48,0 " />
</g>
		<g transform="matrix(1 0 0 1 42.5 66.74)"  >
<polygon style="stroke: none; stroke-width: 1; stroke-dasharray: none; stroke-linecap: butt; stroke-dashoffset: 0; stroke-linejoin: miter; stroke-miterlimit: 4; fill: rgb(255,247,247); fill-rule: nonzero; opacity: 1;" vector-effect="non-scaling-stroke"  points="0,14.58 15.7,-14.58 -15.7,-14.58 " />
</g>
		<g transform="matrix(1 0 0 1 -8.65 -31.05)"  >
<polygon style="stroke: none; stroke-width: 1; stroke-dasharray: none; stroke-linecap: butt; stroke-dashoffset: 0; stroke-linejoin: miter; stroke-miterlimit: 4; fill: rgb(255,247,247); fill-rule: nonzero; opacity: 1;" vector-effect="non-scaling-stroke"  points="18.71,-17.37 -18.71,-17.37 0,17.37 " />
</g>
		<g transform="matrix(1 0 0 1 93.65 -31.05)"  >
<polygon style="stroke: none; stroke-width: 1; stroke-dasharray: none; stroke-linecap: butt; stroke-dashoffset: 0; stroke-linejoin: miter; stroke-miterlimit: 4; fill: rgb(255,247,247); fill-rule: nonzero; opacity: 1;" vector-effect="non-scaling-stroke"  points="18.71,-17.37 -18.71,-17.37 0,17.37 " />
</g>
		<g transform="matrix(1 0 0 1 42.5 -73)"  >
<polygon style="stroke: none; stroke-width: 1; stroke-dasharray: none; stroke-linecap: butt; stroke-dashoffset: 0; stroke-linejoin: miter; stroke-miterlimit: 4; fill: rgb(255,247,247); fill-rule: nonzero; opacity: 1;" vector-effect="non-scaling-stroke"  points="0,-14.58 -15.7,14.58 15.7,14.58 " />
</g>
		<g transform="matrix(1 0 0 1 -8.65 24.79)"  >
<polygon style="stroke: none; stroke-width: 1; stroke-dasharray: none; stroke-linecap: butt; stroke-dashoffset: 0; stroke-linejoin: miter; stroke-miterlimit: 4; fill: rgb(255,247,247); fill-rule: nonzero; opacity: 1;" vector-effect="non-scaling-stroke"  points="-18.71,17.37 18.71,17.37 0,-17.37 " />
</g>
		<g transform="matrix(1 0 0 1 17.5 -228.13)"  >
<path style="stroke: none; stroke-width: 1; stroke-dasharray: none; stroke-linecap: butt; stroke-dashoffset: 0; stroke-linejoin: miter; stroke-miterlimit: 4; fill: rgb(255,247,247); fill-rule: nonzero; opacity: 1;" vector-effect="non-scaling-stroke"  transform=" translate(-235, -60)" d="M 110 85 L 315 85 L 315 65 L 160 65 C 157.239 65 155 62.761 155 60 C 155 57.239 157.239 55 160 55 L 320 55 C 322.762 55 325 57.239 325 60 L 325 85 L 385 85 L 385 35 L 110 35 C 96.215 35 85 46.215 85 60 C 85 73.785 96.215 85 110 85 z" stroke-linecap="round" />
</g>
		<g transform="matrix(1 0 0 1 93.65 24.79)"  >
<polygon style="stroke: none; stroke-width: 1; stroke-dasharray: none; stroke-linecap: butt; stroke-dashoffset: 0; stroke-linejoin: miter; stroke-miterlimit: 4; fill: rgb(255,247,247); fill-rule: nonzero; opacity: 1;" vector-effect="non-scaling-stroke"  points="-18.71,17.37 18.71,17.37 0,-17.37 " />
</g>
		<g transform="matrix(1 0 0 1 42.5 -3.4)"  >
<path style="stroke: none; stroke-width: 1; stroke-dasharray: none; stroke-linecap: butt; stroke-dashoffset: 0; stroke-linejoin: miter; stroke-miterlimit: 4; fill: rgb(255,247,247); fill-rule: nonzero; opacity: 1;" vector-effect="non-scaling-stroke"  transform=" translate(-260, -284.73)" d="M 390 95 L 110 95 C 100.214 95 91.358 90.958 85 84.461 L 85 485 L 435 485 L 435 95 L 390 95 z M 310 120 L 330 120 L 330 140 L 310 140 L 310 120 z M 270 120 L 290 120 L 290 140 L 270 140 L 270 120 z M 230 120 L 250 120 L 250 140 L 230 140 L 230 120 z M 190 120 L 210 120 L 210 140 L 190 140 L 190 120 z M 210 460 L 190 460 L 190 440 L 210 440 L 210 460 z M 250 460 L 230 460 L 230 440 L 250 440 L 250 460 z M 290 460 L 270 460 L 270 440 L 290 440 L 290 460 z M 330 460 L 310 460 L 310 440 L 330 440 L 330 460 z M 338.255 340.294 C 338.249 340.293 338.243 340.293 338.235 340.294 L 287.058 340.294 L 264.402 382.37 C 263.529 383.99 261.839 385 260 385 C 258.161 385 256.47 383.99 255.598 382.37 L 232.942 340.294 L 181.76500000000001 340.294 C 180.00500000000002 340.294 178.37500000000003 339.36899999999997 177.473 337.85699999999997 C 176.57100000000003 336.34499999999997 176.52900000000002 334.472 177.363 332.92199999999997 L 203.167 285 L 177.362 237.077 C 176.528 235.527 176.57 233.653 177.472 232.142 C 178.374 230.631 180.005 229.706 181.764 229.706 L 232.94 229.706 L 255.597 187.629 C 256.47 186.01 258.16 185 260 185 C 261.84 185 263.529 186.01 264.402 187.629 L 287.058 229.706 L 338.235 229.706 C 339.995 229.706 341.62600000000003 230.631 342.528 232.142 C 343.42900000000003 233.653 343.47 235.527 342.636 237.077 L 316.833 285 L 342.44000000000005 332.557 C 342.95500000000004 333.343 343.25300000000004 334.285 343.25300000000004 335.29400000000004 C 343.255 338.057 341.017 340.294 338.255 340.294 z" stroke-linecap="round" />
</g>
		
</g>
</g>
</svg>