<svg version="1.1" xmlns="http://www.w3.org/2000/svg" xmlns:xlink="http://www.w3.org/1999/xlink" width="60px" height="75px" viewBox="0,0,204.8,256"><g fill="#ffffff" fill-rule="nonzero" stroke="none" stroke-width="1" stroke-linecap="butt" stroke-linejoin="miter" stroke-miterlimit="10" stroke-dasharray="" stroke-dashoffset="0" font-family="none" font-weight="none" font-size="none" text-anchor="none" style="mix-blend-mode: normal"><g transform="translate(3.41333,-15.34251) scale(3.41333,3.41333)"><g><path d="M35,26c0.77393,0 0.959,0 0.99316,-2h-1.98632c0.03416,2 0.21923,2 0.99316,2z"></path><path d="M36.16895,18c0.35854,-1.83068 -0.02071,-3.72889 -1.05518,-5.28125c-0.25103,-0.38819 -0.65663,-0.64994 -1.11377,-0.71875c-0.30322,0 -0.792,0.3916 -1.14014,1.14063c-0.67919,1.61473 -0.44005,3.4697 0.62647,4.85937z"></path><path d="M2.59391,50.61451l15.40609,6.84624v-46.84259l-14.55279,-7.27639c-0.30999,-0.15499 -0.67813,-0.13843 -0.97294,0.04378c-0.29482,0.18221 -0.47427,0.50407 -0.47427,0.85065v45.46448c0,0.39521 0.23276,0.75334 0.59391,0.91383z"></path><path d="M36.16895,38c0.35854,-1.83068 -0.02071,-3.72889 -1.05518,-5.28125c-0.25103,-0.38819 -0.65663,-0.64994 -1.11377,-0.71875c-0.30322,0 -0.792,0.3916 -1.14014,1.14063c-0.67919,1.61473 -0.44005,3.4697 0.62647,4.85937z"></path><path d="M35,46c0.77393,0 0.959,0 0.99316,-2h-1.98632c0.03416,2 0.21923,2 0.99316,2z"></path><path d="M25,36c0.77393,0 0.959,0 0.99316,-2h-1.98632c0.03416,2 0.21923,2 0.99316,2z"></path><path d="M20,57.572l20,-7.27209v-47.81016l-20,8.18176zM25,38c-3,0 -3,-2.31738 -3,-5c-0.00007,-0.26524 0.10527,-0.51963 0.29282,-0.70718c0.18755,-0.18755 0.44195,-0.29289 0.70718,-0.29282h4c0.26524,-0.00007 0.51963,0.10527 0.70718,0.29282c0.18755,0.18755 0.29289,0.44195 0.29282,0.70718c0,2.68262 0,5 -3,5zM35,48c-3,0 -3,-2.31738 -3,-5c-0.00007,-0.26524 0.10527,-0.51963 0.29282,-0.70718c0.18755,-0.18755 0.44195,-0.29289 0.70718,-0.29282h4c0.26524,-0.00007 0.51963,0.10527 0.70718,0.29282c0.18755,0.18755 0.29289,0.44195 0.29282,0.70718c0,2.68262 0,5 -3,5zM31.04639,12.29785c0.46018,-1.27061 1.60886,-2.16425 2.95361,-2.29785c1.06986,0.05373 2.05601,0.59504 2.67578,1.46875c1.55672,2.26491 2.03251,5.10216 1.2998,7.751c-0.10272,0.45622 -0.50794,0.78031 -0.97558,0.78025h-4c-0.29468,0.00001 -0.57433,-0.13008 -0.76416,-0.35547c-1.78764,-2.01101 -2.25123,-4.87434 -1.18945,-7.34668zM38,23c0,2.68262 0,5 -3,5c-3,0 -3,-2.31738 -3,-5c-0.00007,-0.26524 0.10527,-0.51963 0.29282,-0.70718c0.18755,-0.18755 0.44195,-0.29289 0.70718,-0.29282h4c0.26524,-0.00007 0.51963,0.10527 0.70718,0.29282c0.18755,0.18755 0.29289,0.44195 0.29282,0.70718zM31.04639,32.29785c0.46018,-1.27061 1.60886,-2.16425 2.95361,-2.29785c1.06986,0.05373 2.05601,0.59504 2.67578,1.46875c1.55672,2.26491 2.03251,5.10216 1.2998,7.751c-0.10272,0.45622 -0.50794,0.78031 -0.97558,0.78025h-4c-0.29468,0.00001 -0.57433,-0.13008 -0.76416,-0.35547c-1.78764,-2.01101 -2.25123,-4.87434 -1.18945,-7.34668zM23.32422,21.46875c0.61977,-0.87371 1.60592,-1.41502 2.67578,-1.46875c1.34475,0.1336 2.49343,1.02724 2.95361,2.29785c1.06178,2.47234 0.59819,5.33567 -1.18945,7.34668c-0.18983,0.22539 -0.46948,0.35548 -0.76416,0.35547h-4c-0.46765,0.00006 -0.87288,-0.32404 -0.97559,-0.78027c-0.7327,-2.64883 -0.25691,-5.48608 1.29981,-7.75098z"></path><path d="M42,2.61841v47.73144l14.59386,6.48615c0.30933,0.13748 0.66722,0.10914 0.95106,-0.07532c0.28384,-0.18446 0.45509,-0.49999 0.45508,-0.8385v-44.686c0,-0.37878 -0.21401,-0.72504 -0.5528,-0.89443z"></path><path d="M26.51367,28c1.06651,-1.38968 1.30565,-3.24464 0.62646,-4.85937c-0.34813,-0.74903 -0.83691,-1.14063 -1.14013,-1.14063c-0.45714,0.06881 -0.86274,0.33056 -1.11377,0.71875c-1.03447,1.55236 -1.41372,3.45057 -1.05518,5.28125z"></path></g><text x="0" y="75" font-family="'Helvetica Neue', Helvetica, Arial-Unicode, Arial, Sans-serif" font-weight="bold" font-size="5" text-anchor="start">Created by Locad</text><text x="0" y="80" font-family="'Helvetica Neue', Helvetica, Arial-Unicode, Arial, Sans-serif" font-weight="bold" font-size="5" text-anchor="start">from the Noun Project</text></g></g></svg>