<svg version="1.1" xmlns="http://www.w3.org/2000/svg" xmlns:xlink="http://www.w3.org/1999/xlink" width="60px" height="75px" viewBox="0,0,204.8,256"><g fill="#ffffff" fill-rule="nonzero" stroke="none" stroke-width="1" stroke-linecap="butt" stroke-linejoin="miter" stroke-miterlimit="10" stroke-dasharray="" stroke-dashoffset="0" font-family="none" font-weight="none" font-size="none" text-anchor="none" style="mix-blend-mode: normal"><g transform="translate(3.41333,-48.64) scale(3.41333,3.41333)"><g><path d="M11,28h-8c-0.55228,0 -1,0.44772 -1,1v23.777c-0.0448,2.62678 1.89408,4.86655 4.50018,5.19855c1.40567,0.13942 2.80481,-0.32155 3.85232,-1.26921c1.04751,-0.94766 1.64588,-2.29378 1.6475,-3.70634v-24c0,-0.55228 -0.44772,-1 -1,-1zM6,54c0,0.55228 -0.44772,1 -1,1c-0.55228,0 -1,-0.44772 -1,-1v-23c0,-0.55228 0.44772,-1 1,-1c0.55228,0 1,0.44772 1,1zM10,54c0,0.55228 -0.44772,1 -1,1c-0.55228,0 -1,-0.44772 -1,-1v-23c0,-0.55228 0.44772,-1 1,-1c0.55228,0 1,0.44772 1,1z"></path><path d="M15,22c-0.55228,0 -1,0.44772 -1,1v30c0.00109,1.88239 -0.75816,3.68542 -2.10547,5h41.10547c2.76142,0 5,-2.23858 5,-5v-30c0,-0.55228 -0.44772,-1 -1,-1zM17,25h10c0.55228,0 1,0.44772 1,1c0,0.55228 -0.44772,1 -1,1h-10c-0.55228,0 -1,-0.44772 -1,-1c0,-0.55228 0.44772,-1 1,-1zM32,55h-15c-0.55228,0 -1,-0.44772 -1,-1c0,-0.55228 0.44772,-1 1,-1h15c0.55228,0 1,0.44772 1,1c0,0.55228 -0.44772,1 -1,1zM32,51h-15c-0.55228,0 -1,-0.44772 -1,-1c0,-0.55228 0.44772,-1 1,-1h15c0.55228,0 1,0.44772 1,1c0,0.55228 -0.44772,1 -1,1zM32,47h-15c-0.55228,0 -1,-0.44772 -1,-1c0,-0.55228 0.44772,-1 1,-1h15c0.55228,0 1,0.44772 1,1c0,0.55228 -0.44772,1 -1,1zM32,43h-15c-0.55228,0 -1,-0.44772 -1,-1c0,-0.55228 0.44772,-1 1,-1h15c0.55228,0 1,0.44772 1,1c0,0.55228 -0.44772,1 -1,1zM32,39h-15c-0.55228,0 -1,-0.44772 -1,-1c0,-0.55228 0.44772,-1 1,-1h15c0.55228,0 1,0.44772 1,1c0,0.55228 -0.44772,1 -1,1zM55,55h-15c-0.55228,0 -1,-0.44772 -1,-1c0,-0.55228 0.44772,-1 1,-1h15c0.55228,0 1,0.44772 1,1c0,0.55228 -0.44772,1 -1,1zM55,51h-15c-0.55228,0 -1,-0.44772 -1,-1c0,-0.55228 0.44772,-1 1,-1h15c0.55228,0 1,0.44772 1,1c0,0.55228 -0.44772,1 -1,1zM55,47h-15c-0.55228,0 -1,-0.44772 -1,-1c0,-0.55228 0.44772,-1 1,-1h15c0.55228,0 1,0.44772 1,1c0,0.55228 -0.44772,1 -1,1zM55,43h-15c-0.55228,0 -1,-0.44772 -1,-1c0,-0.55228 0.44772,-1 1,-1h15c0.55228,0 1,0.44772 1,1c0,0.55228 -0.44772,1 -1,1zM55,39h-15c-0.55228,0 -1,-0.44772 -1,-1c0,-0.55228 0.44772,-1 1,-1h15c0.55228,0 1,0.44772 1,1c0,0.55228 -0.44772,1 -1,1zM55,33h-38c-0.55228,0 -1,-0.44772 -1,-1c0,-0.55228 0.44772,-1 1,-1h38c0.55228,0 1,0.44772 1,1c0,0.55228 -0.44772,1 -1,1zM55,27h-10c-0.55228,0 -1,-0.44772 -1,-1c0,-0.55228 0.44772,-1 1,-1h10c0.55228,0 1,0.44772 1,1c0,0.55228 -0.44772,1 -1,1z"></path></g><text x="0" y="75" font-family="'Helvetica Neue', Helvetica, Arial-Unicode, Arial, Sans-serif" font-weight="bold" font-size="5" text-anchor="start"></text><text x="0" y="80" font-family="'Helvetica Neue', Helvetica, Arial-Unicode, Arial, Sans-serif" font-weight="bold" font-size="5" text-anchor="start"></text></g></g></svg>